<?xml version="1.0" encoding="utf-8"?>
<!-- Generator: Adobe Illustrator 22.1.0, SVG Export Plug-In . SVG Version: 6.00 Build 0)  -->
<svg version="1.1" id="Layer_1" xmlns="http://www.w3.org/2000/svg" xmlns:xlink="http://www.w3.org/1999/xlink" x="0px" y="0px"
	 viewBox="0 0 100 100" style="enable-background:new 0 0 100 100;" xml:space="preserve">
<style type="text/css">
	.st0{fill:#FFFFFF;}
</style>
<g>
	<g>
		<path class="st0" d="M36.8,75.8c-2.1,0-4.3,0-6.4,0c-3.4,0-6.7,0-10.1,0c-0.8,0-1.5,0-2.3,0c0.9,0.9,1.9,1.9,2.9,2.9
			c0-2.1,0-4.3,0-6.4c0-3.4,0-6.7,0-10.1c0-0.8,0-1.5,0-2.3c0-1.5-1.3-2.9-2.9-2.9c-1.5,0.1-2.9,1.3-2.9,2.9c0,2.1,0,4.3,0,6.4
			c0,3.4,0,6.7,0,10.1c0,0.8,0,1.5,0,2.3c0,1.5,1.3,2.9,2.9,2.9c2.1,0,4.3,0,6.4,0c3.4,0,6.7,0,10.1,0c0.8,0,1.5,0,2.3,0
			c1.5,0,2.9-1.3,2.9-2.9C39.6,77.1,38.4,75.8,36.8,75.8L36.8,75.8z"/>
		<path class="st0" d="M63.2,81.5c2.1,0,4.3,0,6.4,0c3.4,0,6.7,0,10.1,0c0.8,0,1.5,0,2.3,0c1.5,0,2.9-1.3,2.9-2.9c0-2.1,0-4.3,0-6.4
			c0-3.4,0-6.7,0-10.1c0-0.8,0-1.5,0-2.3c0-1.5-1.3-2.9-2.9-2.9c-1.5,0.1-2.9,1.3-2.9,2.9c0,2.1,0,4.3,0,6.4c0,3.4,0,6.7,0,10.1
			c0,0.8,0,1.5,0,2.3c0.9-0.9,1.9-1.9,2.9-2.9c-2.1,0-4.3,0-6.4,0c-3.4,0-6.7,0-10.1,0c-0.8,0-1.5,0-2.3,0c-1.5,0-2.9,1.3-2.9,2.9
			C60.4,80.2,61.6,81.5,63.2,81.5L63.2,81.5z"/>
		<path class="st0" d="M36.8,18.5c-2.1,0-4.3,0-6.4,0c-3.4,0-6.7,0-10.1,0c-0.8,0-1.5,0-2.3,0c-1.5,0-2.9,1.3-2.9,2.9
			c0,2.1,0,4.3,0,6.4c0,3.4,0,6.7,0,10.1c0,0.8,0,1.5,0,2.3c0,1.5,1.3,2.9,2.9,2.9c1.5-0.1,2.9-1.3,2.9-2.9c0-2.1,0-4.3,0-6.4
			c0-3.4,0-6.7,0-10.1c0-0.8,0-1.5,0-2.3c-0.9,0.9-1.9,1.9-2.9,2.9c2.1,0,4.3,0,6.4,0c3.4,0,6.7,0,10.1,0c0.8,0,1.5,0,2.3,0
			c1.5,0,2.9-1.3,2.9-2.9C39.6,19.8,38.4,18.5,36.8,18.5L36.8,18.5z"/>
		<path class="st0" d="M84.8,40.2c0-2.1,0-4.3,0-6.4c0-3.4,0-6.7,0-10.1c0-0.8,0-1.5,0-2.3c0-1.5-1.3-2.9-2.9-2.9
			c-2.1,0-4.3,0-6.4,0c-3.4,0-6.7,0-10.1,0c-0.8,0-1.5,0-2.3,0c-1.5,0-2.9,1.3-2.9,2.9c0.1,1.5,1.3,2.9,2.9,2.9c2.1,0,4.3,0,6.4,0
			c3.4,0,6.7,0,10.1,0c0.8,0,1.5,0,2.3,0c-0.9-0.9-1.9-1.9-2.9-2.9c0,2.1,0,4.3,0,6.4c0,3.4,0,6.7,0,10.1c0,0.8,0,1.5,0,2.3
			c0,1.5,1.3,2.9,2.9,2.9C83.5,42.9,84.8,41.8,84.8,40.2L84.8,40.2z"/>
	</g>
</g>
</svg>
